<?xml version="1.0" encoding="utf-8"?>
<!-- Generator: Adobe Illustrator 19.2.0, SVG Export Plug-In . SVG Version: 6.00 Build 0)  -->
<svg version="1.1" id="Layer_1" xmlns="http://www.w3.org/2000/svg" xmlns:xlink="http://www.w3.org/1999/xlink" x="0px" y="0px"
	 viewBox="0 0 1071.2 371.6" style="enable-background:new 0 0 1071.2 371.6;" xml:space="preserve">
<style type="text/css">
	.st0{opacity:0.85;fill:#222222;enable-background:new    ;}
	.st1{fill:#FFFFFF;}
</style>
<path class="st0" d="M1047.8,371.6H24c-13.3,0-24-10.7-24-24V24C0,10.7,10.7,0,24,0h1023.8c13.3,0,24,10.7,24,24v323.6
	C1071.8,360.8,1061,371.6,1047.8,371.6z"/>
<g>
	<path class="st1" d="M506.3,182.3l7.4-1.2V130l-7.4-1.1v-2.3h43.5v13.9H547l-1.4-9.4c-3.2-0.4-7.9-0.6-14-0.6h-9.5v22.7h15.7
		l1.3-6.9h2.8V164h-2.8l-1.3-7h-15.7v23.7h11.4c7.4,0,12.3-0.2,14.6-0.7l2.5-10.7h2.9l-0.8,15.3h-46.3v-2.3H506.3z"/>
	<path class="st1" d="M627.1,126.5v2.3l-6.4,1.1l-23.3,55.9h-2.2L571.6,130l-6.5-1.1v-2.3h23.4v2.3l-7.8,1.1l17.6,42.7l17.5-42.7
		l-7.6-1.1v-2.3L627.1,126.5L627.1,126.5z"/>
	<path class="st1" d="M636.8,182.3l7.4-1.2V130l-7.4-1.1v-2.3h43.5v13.9h-2.9l-1.4-9.4c-3.2-0.4-7.9-0.6-14-0.6h-9.5v22.7h15.7
		l1.3-6.9h2.8V164h-2.8l-1.3-7h-15.7v23.7H664c7.4,0,12.3-0.2,14.6-0.7l2.5-10.7h2.9l-0.8,15.3h-46.3v-2.3H636.8z"/>
	<path class="st1" d="M712.9,159.1v22l8.8,1.2v2.3h-24v-2.3l6.9-1.2V130l-7.4-1.1v-2.3h25c7.3,0,12.6,1.2,16.1,3.7s5.2,6.4,5.2,11.8
		c0,3.9-1.1,7.2-3.2,10c-2.1,2.8-5,4.8-8.7,5.9l15.7,23.2l6.3,1.2v2.3h-13.9l-16.3-25.4h-10.5V159.1z M734.8,142.6
		c0-4.4-1.1-7.5-3.2-9.4c-2.1-1.9-5.9-2.8-11.3-2.8h-7.4v24.8h7.7c5.2,0,8.8-1,11-2.9C733.8,150.4,734.8,147.2,734.8,142.6z"/>
	<path class="st1" d="M762.4,182.3l7.4-1.2V130l-7.4-1.1v-2.3h43.5v13.9H803l-1.4-9.4c-3.2-0.4-7.9-0.6-14-0.6h-9.5v22.7h15.7
		l1.3-6.9h2.8V164h-2.8l-1.3-7h-15.7v23.7h11.4c7.4,0,12.3-0.2,14.6-0.7l2.5-10.7h2.9l-0.8,15.3h-46.3V182.3z"/>
	<path class="st1" d="M831.1,184.5v-2.3l9.2-1.2v-50.8h-2.2c-7.3,0-12.3,0.3-15,0.9l-1.2,9H819v-13.6h51v13.6h-2.9l-1.2-9
		c-0.9-0.2-2.8-0.4-5.7-0.5c-2.9-0.2-6.1-0.2-9.6-0.2h-2.1v50.7l9.2,1.2v2.3L831.1,184.5L831.1,184.5z"/>
	<path class="st1" d="M893.5,184.5v-2.3l9.2-1.2v-50.8h-2.2c-7.3,0-12.3,0.3-15,0.9l-1.2,9h-2.9v-13.6h51v13.6h-2.9l-1.2-9
		c-0.9-0.2-2.8-0.4-5.7-0.5c-2.9-0.2-6.1-0.2-9.6-0.2h-2.1v50.7l9.2,1.2v2.3L893.5,184.5L893.5,184.5z"/>
	<path class="st1" d="M531.1,202l-9,1.1V254h11.4c6.1,0,10.7-0.3,13.5-0.9l2.7-12.1h2.8l-0.8,16.7h-45.5v-2.3l7.4-1.2v-51.1
		l-7.4-1.1v-2.3h24.7v2.3H531.1z"/>
	<path class="st1" d="M566.6,255.5l7.4-1.2v-51.1l-7.4-1.1v-2.3h43.5v13.9h-2.9l-1.4-9.4c-3.2-0.4-7.9-0.6-14-0.6h-9.5v22.7H598
		l1.3-6.9h2.8v17.8h-2.8l-1.3-7h-15.7V254h11.4c7.4,0,12.3-0.2,14.6-0.7l2.5-10.7h2.9l-0.8,15.3h-46.3V255.5z"/>
	<path class="st1" d="M679.9,254.7c-3.3,1.1-6.8,2-10.4,2.8c-3.6,0.7-7.5,1.1-11.6,1.1c-9.4,0-16.7-2.5-22-7.6
		c-5.2-5.1-7.9-12.3-7.9-21.6c0-10.2,2.5-17.7,7.6-22.8c5.1-5,12.6-7.5,22.4-7.5c7,0,13.8,0.9,20.4,2.6v12.5h-2.9l-1.2-7.2
		c-2-1.4-4.4-2.5-7.2-3.3s-5.7-1.1-8.8-1.1c-7.4,0-12.8,2.2-16.2,6.6c-3.4,4.4-5.1,11.1-5.1,20.2c0,8.5,1.8,15,5.3,19.4
		s8.7,6.6,15.6,6.6c2.4,0,5-0.3,7.6-0.9c2.7-0.6,4.7-1.3,6.1-2.1v-16.5l-7.4-1.1v-2.3h21.4v2.3l-5.7,1.1L679.9,254.7L679.9,254.7z"
		/>
	<path class="st1" d="M709.2,255.5v2.3h-19.1v-2.3l6.6-1.2l19.8-55h8.2l20.5,55l7.4,1.2v2.3h-24.5v-2.3l7.8-1.2l-5.8-16.7h-22.8
		l-5.8,16.7L709.2,255.5z M718.5,205.5l-9.9,28.2h20.2L718.5,205.5z"/>
	<path class="st1" d="M786.7,202l-9,1.1V254h11.4c6.1,0,10.7-0.3,13.5-0.9l2.7-12.1h2.8l-0.8,16.7H762v-2.3l7.4-1.2v-51.1L762,202
		v-2.3h24.7V202z"/>
</g>
<g>
	<rect x="140.1" y="76" class="st1" width="44.5" height="59.2"/>
	<rect x="356.8" y="76" class="st1" width="44.5" height="59.2"/>
	<rect x="140.1" y="65.8" class="st1" width="261.1" height="44.5"/>
	<rect x="248.5" y="96.9" class="st1" width="44.5" height="213.7"/>
	<rect x="205.5" y="280.6" class="st1" width="130.5" height="44.5"/>
	<circle class="st1" cx="268" cy="80.4" r="27.9"/>
	<path class="st1" d="M216.2,255.5c-26.4,34.1-83,35.9-111.5,0C141.9,255.5,178.9,255.5,216.2,255.5z"/>
	<path class="st1" d="M438.1,255.5c-27.6,34.9-84.1,35.1-111.5,0C363.8,255.5,400.7,255.5,438.1,255.5z"/>
	<g>
		<rect x="341" y="144" class="st1" width="47.8" height="28.2"/>
		<rect x="341" y="219.1" class="st1" width="82.5" height="28.2"/>
		<rect x="348.3" y="162" class="st1" width="31" height="82.5"/>
		<rect x="392.5" y="203.7" class="st1" width="31" height="39.4"/>
	</g>
	<g>
		<rect x="120.6" y="143.9" class="st1" width="82.5" height="28.2"/>
		<rect x="120.6" y="219.1" class="st1" width="82.5" height="28.2"/>
		<rect x="127.9" y="162" class="st1" width="31" height="82.5"/>
		<rect x="172.1" y="211.8" class="st1" width="31" height="32.6"/>
		<rect x="172.1" y="146.5" class="st1" width="31" height="32.6"/>
		<rect x="148.4" y="184.3" class="st1" width="35.3" height="22.3"/>
	</g>
</g>
</svg>
